<svg width="14" height="9" viewBox="0 0 14 9" fill="none" xmlns="http://www.w3.org/2000/svg">
<path d="M1.07111 7.38458C1.12188 7.50644 1.19627 7.61704 1.29 7.71C1.38296 7.80373 1.49356 7.87812 1.61542 7.92889C1.73728 7.97966 1.86799 8.0058 2 8.0058C2.13201 8.0058 2.26272 7.97966 2.38458 7.92889C2.50644 7.87812 2.61704 7.80373 2.71 7.71L7 3.41L11.29 7.71C11.383 7.80373 11.4936 7.87812 11.6154 7.92889C11.7373 7.97966 11.868 8.0058 12 8.0058C12.132 8.0058 12.2627 7.97966 12.3846 7.92889C12.5064 7.87812 12.617 7.80373 12.71 7.71C12.8037 7.61704 12.8781 7.50644 12.9289 7.38458C12.9797 7.26272 13.0058 7.13201 13.0058 7C13.0058 6.86799 12.9797 6.73728 12.9289 6.61542C12.8781 6.49356 12.8037 6.38296 12.71 6.29L7.71 1.29C7.61704 1.19627 7.50644 1.12188 7.38458 1.07111C7.26272 1.02034 7.13201 0.994202 7 0.994202C6.86799 0.994202 6.73728 1.02034 6.61542 1.07111C6.49356 1.12188 6.38296 1.19627 6.29 1.29L1.29 6.29C1.19627 6.38296 1.12188 6.49356 1.07111 6.61542C1.02034 6.73728 0.994201 6.86799 0.994201 7C0.994201 7.13201 1.02034 7.26272 1.07111 7.38458Z" fill="#C5C7D3"/>
</svg>
